<svg xmlns="http://www.w3.org/2000/svg" viewBox="0 0 131 152.54"><g id="Calque_2" data-name="Calque 2"><g id="Calque_1-2" data-name="Calque 1"><path fill="#ffffff" d="M15.73,105.51a19.83,19.83,0,0,0-1.67,2.11V73.3H14V62.21H0v6.05a11,11,0,0,1,.07,1.33v74.29A11,11,0,0,1,0,145.21v6H14V131.49h.06V113.4a34.87,34.87,0,0,1,8-8.81l2.06-1.39c.67-.49,1.44-.81,2.15-1.23a29.35,29.35,0,0,1,9.25-3.13c.4-.06.79-.16,1.2-.21L38,98.55a21.61,21.61,0,0,1,2.41-.12l2.4.07c.81,0,1.74.14,2.6.2,1.9.16,3.79.34,5.69.53v44.65c0,.12,0,.23,0,.35v7h14V135.75a29.49,29.49,0,0,0,10.16,10.6c6,3.84,14,6.19,23.84,6.19,17.69,0,31.93-10.68,31.93-24.8,0-31.82-54.06-23.54-54.06-50.13,0-9.67,7.51-14.12,15.64-14.12,15,0,22.39,12.09,23.67,31.68L131,89.31c-1-14.76-15.13-27.73-38-27.73A40.7,40.7,0,0,0,75.23,65.4a25.43,25.43,0,0,0-9.73,7.91c-.15.21-.29.42-.43.64V62.21h-14v7c0,.11,0,.22,0,.34V91c-1.9.19-3.79.37-5.69.52l-2.67.24-2.87.34c-1,.09-1.89.38-2.82.56l-1.4.31c-.46.11-.91.28-1.37.42a37.69,37.69,0,0,0-10.21,4.78,26.71,26.71,0,0,0-2.29,1.6l-2.16,1.77A44.12,44.12,0,0,0,15.73,105.51Zm100.14,29.1c0,10.3-8.53,16-16.8,16-14.62,0-21-12.1-22.52-31.69L65.07,123.5v-27C76.77,114.3,115.87,111.34,115.87,134.61Z"/><polygon fill="#ffffff" points="54.54 33.73 65.5 25.77 76.46 33.73 72.27 20.85 83.23 12.88 69.69 12.88 65.5 0 61.31 12.88 47.76 12.88 58.73 20.85 54.54 33.73"/><polygon fill="#ffffff" points="93.51 36.86 100.1 32.08 106.69 36.86 104.17 29.12 110.76 24.33 102.62 24.33 100.1 16.58 97.58 24.33 89.44 24.33 96.03 29.12 93.51 36.86"/><polygon fill="#ffffff" points="24.31 36.86 30.9 32.08 37.49 36.86 34.97 29.12 41.56 24.33 33.41 24.33 30.9 16.58 28.38 24.33 20.23 24.33 26.82 29.12 24.31 36.86"/></g></g></svg>
