<svg xmlns="http://www.w3.org/2000/svg" viewBox="0 0 576.81 110.94"><g id="Calque_2" data-name="Calque 2"><g id="Calque_1-2" data-name="Calque 1"><path d="M11.44,76.74a13.78,13.78,0,0,0-1.21,1.53v-25h-.05V45.25H0v4.4a7.33,7.33,0,0,1,.05,1v54a7.39,7.39,0,0,1,0,1V110H10.18V95.63h.05V82.48a23.39,23.39,0,0,1,3.14-4,23,23,0,0,1,2.71-2.42l1.5-1a15.19,15.19,0,0,1,1.57-.9,21.12,21.12,0,0,1,6.72-2.27c.29,0,.58-.13.87-.16l.88-.06a14.64,14.64,0,0,1,1.75-.08l1.75,0c.59,0,1.26.1,1.89.15,1.38.11,2.76.24,4.14.38v32.47a2.26,2.26,0,0,1,0,.26V110H47.32V98.73a21.54,21.54,0,0,0,7.39,7.71c4.4,2.79,10.22,4.5,17.34,4.5,12.87,0,23.22-7.77,23.22-18C95.27,69.76,56,75.78,56,56.45c0-7,5.46-10.27,11.37-10.27,10.93,0,16.28,8.78,17.22,23L95.27,65c-.73-10.73-11-20.16-27.66-20.16a29.53,29.53,0,0,0-12.9,2.78,18.56,18.56,0,0,0-7.08,5.74c-.11.16-.2.32-.31.47V45.25H37.14v5.12a1.93,1.93,0,0,1,0,.24V66.17c-1.38.14-2.76.26-4.14.38l-1.94.17L29,67a18.13,18.13,0,0,0-2.05.41l-1,.22c-.34.08-.67.21-1,.3a27.91,27.91,0,0,0-7.43,3.48,19.24,19.24,0,0,0-1.67,1.17l-1.57,1.29A32,32,0,0,0,11.44,76.74ZM84.27,97.9c0,7.49-6.2,11.65-12.22,11.65-10.63,0-15.26-8.79-16.37-23l-8.36,3.31V70.16C55.83,83.13,84.27,81,84.27,97.9Z"/><polygon points="39.66 24.53 47.64 18.74 55.61 24.53 52.56 15.16 60.53 9.37 50.68 9.37 47.64 0 44.59 9.37 34.74 9.37 42.71 15.16 39.66 24.53"/><polygon points="68.01 26.81 72.8 23.33 77.59 26.81 75.76 21.18 80.56 17.69 74.63 17.69 72.8 12.06 70.97 17.69 65.05 17.69 69.84 21.18 68.01 26.81"/><polygon points="17.68 26.81 22.47 23.33 27.26 26.81 25.43 21.18 30.23 17.69 24.3 17.69 22.47 12.06 20.64 17.69 14.72 17.69 19.51 21.18 17.68 26.81"/><path d="M145.6,60.6c0-2.27-.9-3.25-2.49-3.25h-2V56.23h17.33v1.12h-2c-1.59,0-2.49,1-2.49,3.25V80h21.93V60.6c0-2.27-.9-3.25-2.49-3.25h-2V56.23h17.33v1.12h-2c-1.58,0-2.49,1-2.49,3.25v44c0,2.26.91,3.24,2.49,3.24h2V109H171.3v-1.13h2c1.59,0,2.49-1,2.49-3.24V81.09H153.89v23.52c0,2.26.9,3.24,2.49,3.24h2V109H141.08v-1.13h2c1.59,0,2.49-1,2.49-3.24Z"/><path d="M217.27,55.47A27.13,27.13,0,1,1,190.14,82.6,27.21,27.21,0,0,1,217.27,55.47Zm0,53.13c10,0,18.16-11.68,18.16-26s-8.14-26-18.16-26-18.16,11.68-18.16,26S207.25,108.6,217.27,108.6Z"/><path d="M261.66,57.35h-1c-9.27,0-12.44,3.25-14.17,9.12h-1.13l2-10.24h36.93l2,10.24H285.1c-1.74-5.87-4.9-9.12-14.17-9.12h-1v47.26c0,2.26.9,3.24,2.48,3.24h2V109H257.14v-1.13h2c1.58,0,2.49-1,2.49-3.24Z"/><path d="M318.18,85.39h-1.13c-.83-2.86-2.34-4.45-7.16-4.45h-7.84v26.91h4c9.28,0,15.46-3.24,17.19-9.12h1.13l-2,10.25H289.24v-1.13h2c1.59,0,2.49-1,2.49-3.24v-44c0-2.27-.9-3.25-2.49-3.25h-2V56.23H322.4l2,10.24h-1.13c-1.73-5.87-7.91-9.12-17.19-9.12h-4V79.81h7.84c4.82,0,6.33-1.58,7.16-4.44h1.13Z"/><path d="M346.21,56.23v1.12h-2c-1.59,0-2.49,1-2.49,3.25v47.25h4c9.27,0,15.45-3.24,17.19-9.12H364L362,109H328.88v-1.13h2c1.59,0,2.49-1,2.49-3.24v-44c0-2.27-.9-3.25-2.49-3.25h-2V56.23Z"/><path d="M429.11,95c0,8.36-8.44,14.69-18.92,14.69-13.64,0-21.4-7.68-22.08-16.43l8.74-3.46c.91,11.6,4.68,18.76,13.34,18.76,4.9,0,9.95-3.39,9.95-9.49,0-16.21-32-10.93-32-29.47,0-8.52,8.52-13.79,18.46-13.79,13.57,0,21.93,7.68,22.54,16.43l-8.74,3.46c-.76-11.6-5.13-18.76-14-18.76-4.82,0-9.27,2.64-9.27,8.36C397.08,81.09,429.11,76.2,429.11,95Z"/><path d="M460.76,55.47A27.13,27.13,0,1,1,433.63,82.6,27.21,27.21,0,0,1,460.76,55.47Zm0,53.13c10,0,18.16-11.68,18.16-26s-8.14-26-18.16-26-18.16,11.68-18.16,26S450.73,108.6,460.76,108.6Z"/><path d="M518.33,85.39H517.2c-.83-2.86-2.33-4.45-7.16-4.45h-7.83v23.67c0,2.26.9,3.24,2.48,3.24h2V109H489.39v-1.13h2c1.58,0,2.49-1,2.49-3.24v-44c0-2.27-.91-3.25-2.49-3.25h-2V56.23h33.16l2,10.24h-1.13c-1.73-5.87-7.91-9.12-17.18-9.12h-4V79.81H510c4.83,0,6.33-1.58,7.16-4.44h1.13Z"/><path d="M556,89.38a6.15,6.15,0,0,1-3.92,1.51c-4,0-6.33-3.09-8.36-8.44l-8.52-22.08a4.09,4.09,0,0,0-3.92-3H529V56.23h17.19v1.12h-1.81c-1.13,0-2,.61-1.51,1.81l8.22,21.41c1.58,4.07,2.71,5.8,4.44,5.8,1,0,2.11-.6,3.09-2.56l1.06-2.34c3.09-6.56,4.74-15.83,4.14-22.08-.15-1.43-.9-2-2.71-2h-1.43V56.23h17.1v1.12h-2.26c-1.5,0-2.79.76-3.77,2.87l-12,26c-3.4,7.31-4.07,14.17-3.32,18.69.38,2,1.21,2.94,2.71,2.94h1.06V109H542.67v-1.13h2.26c1.59,0,2.94-1,4-3.24Z"/></g></g></svg>