<svg xmlns="http://www.w3.org/2000/svg" viewBox="0 0 435.73 260.36"><g id="Calque_2" data-name="Calque 2"><g id="Calque_1-2" data-name="Calque 1"><path d="M168.1,105.51a19.83,19.83,0,0,0-1.67,2.11V73.3h-.06V62.21h-14v6.05a11,11,0,0,1,.07,1.33v74.29a11,11,0,0,1-.07,1.33v6h14V131.49h.06V113.4a34.39,34.39,0,0,1,8-8.81l2.06-1.39c.67-.49,1.44-.81,2.15-1.23a29.35,29.35,0,0,1,9.25-3.13c.4-.06.79-.16,1.19-.21l1.22-.08a21.43,21.43,0,0,1,2.4-.12l2.41.07c.8,0,1.73.14,2.6.2q2.84.24,5.69.53v44.65c0,.12,0,.23,0,.35v7h14V135.75a29.32,29.32,0,0,0,10.16,10.6c6.05,3.84,14.05,6.19,23.84,6.19,17.69,0,31.93-10.68,31.93-24.8,0-31.82-54.06-23.54-54.06-50.13,0-9.67,7.5-14.12,15.64-14.12,15,0,22.39,12.09,23.67,31.68l14.75-5.86c-1-14.76-15.14-27.73-38-27.73A40.7,40.7,0,0,0,227.6,65.4a25.54,25.54,0,0,0-9.74,7.91c-.15.21-.28.42-.42.64V62.21h-14v7c0,.11,0,.22,0,.34V91c-1.9.19-3.8.37-5.69.52l-2.68.24-2.86.34c-1,.09-1.89.38-2.82.56L188,93c-.46.11-.91.28-1.37.42a37.69,37.69,0,0,0-10.21,4.78c-.77.54-1.59,1-2.3,1.6L172,101.52A44,44,0,0,0,168.1,105.51Zm100.13,29.1c0,10.3-8.52,16-16.79,16-14.63,0-21-12.1-22.52-31.69l-11.48,4.55v-27C229.14,114.3,268.23,111.34,268.23,134.61Z"/><polygon points="206.91 33.73 217.87 25.77 228.83 33.73 224.64 20.85 235.6 12.88 222.05 12.88 217.87 0 213.68 12.88 200.13 12.88 211.09 20.85 206.91 33.73"/><polygon points="245.88 36.86 252.47 32.08 259.06 36.86 256.54 29.12 263.13 24.33 254.99 24.33 252.47 16.58 249.95 24.33 241.81 24.33 248.4 29.12 245.88 36.86"/><polygon points="176.68 36.86 183.26 32.08 189.85 36.86 187.34 29.12 193.93 24.33 185.78 24.33 183.26 16.58 180.75 24.33 172.6 24.33 179.19 29.12 176.68 36.86"/><path d="M4.52,211.23C4.52,209,3.62,208,2,208H0v-1.12H17.33V208h-2c-1.58,0-2.49,1-2.49,3.25v19.36H34.74V211.23c0-2.27-.9-3.25-2.48-3.25h-2v-1.12H47.55V208h-2c-1.58,0-2.49,1-2.49,3.25v44c0,2.26.91,3.24,2.49,3.24h2v1.13H30.22v-1.13h2c1.58,0,2.48-1,2.48-3.24V231.72H12.81v23.52c0,2.26.91,3.24,2.49,3.24h2v1.13H0v-1.13H2c1.58,0,2.48-1,2.48-3.24Z"/><path d="M76.19,206.1a27.13,27.13,0,1,1-27.13,27.13A27.21,27.21,0,0,1,76.19,206.1Zm0,53.13c10,0,18.16-11.68,18.16-26s-8.14-26-18.16-26S58,218.91,58,233.23,66.17,259.23,76.19,259.23Z"/><path d="M120.58,208h-1c-9.27,0-12.44,3.25-14.17,9.12H104.3l2-10.24h36.93l2,10.24H144c-1.74-5.87-4.9-9.12-14.17-9.12h-1v47.26c0,2.26.9,3.24,2.49,3.24h2v1.13H116.06v-1.13h2c1.58,0,2.49-1,2.49-3.24Z"/><path d="M177.1,236H176c-.83-2.86-2.34-4.45-7.16-4.45H161v26.91h4c9.27,0,15.45-3.24,17.18-9.12h1.13l-2,10.25H148.16v-1.13h2c1.58,0,2.48-1,2.48-3.24v-44c0-2.27-.9-3.25-2.48-3.25h-2v-1.12h33.16l2,10.24h-1.13c-1.73-5.87-7.91-9.12-17.18-9.12h-4v22.46h7.84c4.82,0,6.33-1.58,7.16-4.44h1.13Z"/><path d="M205.13,206.86V208h-2c-1.59,0-2.49,1-2.49,3.25v47.25h4c9.28,0,15.45-3.24,17.19-9.12h1.13l-2,10.25H187.8v-1.13h2c1.59,0,2.49-1,2.49-3.24v-44c0-2.27-.9-3.25-2.49-3.25h-2v-1.12Z"/><path d="M288,245.67c0,8.36-8.44,14.69-18.92,14.69-13.64,0-21.4-7.68-22.08-16.43l8.74-3.46c.91,11.6,4.68,18.76,13.34,18.76,4.9,0,9.95-3.39,9.95-9.49,0-16.21-32-10.93-32-29.47,0-8.52,8.52-13.79,18.47-13.79,13.56,0,21.93,7.68,22.53,16.43l-8.74,3.46c-.76-11.6-5.13-18.76-14-18.76-4.82,0-9.27,2.64-9.27,8.36C256,231.72,288,226.83,288,245.67Z"/><path d="M319.68,206.1a27.13,27.13,0,1,1-27.13,27.13A27.21,27.21,0,0,1,319.68,206.1Zm0,53.13c10,0,18.16-11.68,18.16-26s-8.14-26-18.16-26-18.16,11.68-18.16,26S309.66,259.23,319.68,259.23Z"/><path d="M377.25,236h-1.13c-.82-2.86-2.33-4.45-7.16-4.45h-7.83v23.67c0,2.26.9,3.24,2.48,3.24h2v1.13H348.32v-1.13h2c1.58,0,2.49-1,2.49-3.24v-44c0-2.27-.91-3.25-2.49-3.25h-2v-1.12h33.16l1.95,10.24H382.3c-1.73-5.87-7.91-9.12-17.18-9.12h-4v22.46H369c4.83,0,6.34-1.58,7.16-4.44h1.13Z"/><path d="M414.93,240a6.15,6.15,0,0,1-3.91,1.51c-4,0-6.34-3.09-8.37-8.44L394.13,211a4.09,4.09,0,0,0-3.92-3H388v-1.12h17.19V208h-1.81c-1.13,0-2,.61-1.51,1.81L410,231.2c1.58,4.07,2.71,5.8,4.44,5.8,1,0,2.11-.6,3.09-2.56l1.06-2.34c3.09-6.56,4.75-15.83,4.14-22.08-.15-1.43-.9-2-2.71-2h-1.43v-1.12h17.1V208h-2.26c-1.5,0-2.78.76-3.76,2.87l-12.06,26c-3.39,7.31-4.07,14.17-3.32,18.69.38,2,1.21,2.94,2.71,2.94h1.06v1.13H401.59v-1.13h2.27c1.58,0,2.93-1,4-3.24Z"/></g></g></svg>